<svg width="101" height="26" viewBox="0 0 101 26" fill="none" xmlns="http://www.w3.org/2000/svg">
<path d="M0.160156 25H4.0625V0.390625H0.160156V25ZM5.89062 25H7.85938C10.7422 25 12.8398 23.957 14.1523 21.8711C14.8789 20.7227 15.2422 19.4336 15.2422 18.0039C15.2188 15.6836 14.3984 13.9023 12.7812 12.6602C14.0938 11.6992 14.8672 10.2578 15.1016 8.33594C15.1484 8.00781 15.1719 7.67969 15.1719 7.35156C15.1719 5.125 14.3984 3.34375 12.8516 2.00781C11.5391 0.929688 9.86328 0.390625 7.82422 0.390625H5.89062V3.83594H7.33203C9.04297 3.83594 10.2383 4.53906 10.918 5.94531C11.1523 6.48438 11.2695 7.03516 11.2695 7.59766C11.2695 9.16797 10.625 10.1992 9.33594 10.6914C8.84375 10.8789 8.30469 10.9727 7.71875 10.9727H5.89062V14.3828H7.71875C9.47656 14.3828 10.6016 15.0977 11.0938 16.5273C11.2344 16.9258 11.3047 17.3359 11.3047 17.7578C11.3047 19.2109 10.6953 20.2773 9.47656 20.957C8.77344 21.3555 7.94141 21.5547 6.98047 21.5547H5.89062V25ZM17.8789 25V0.390625H21.8164V25H17.8789ZM23.6094 14.6289V11.1133H25.5781C27.6172 11.1133 28.7422 10.1406 28.9531 8.19531C28.9766 7.98438 28.9883 7.78516 28.9883 7.59766C28.9883 5.62891 28.0977 4.46875 26.3164 4.11719C25.9883 4.07031 25.6484 4.04688 25.2969 4.04688H23.6094V0.390625H25.7539C28.8711 0.460938 30.9688 1.62109 32.0469 3.87109C32.4922 4.80859 32.7148 5.88672 32.7148 7.10547C32.6914 9.70703 31.8945 11.5938 30.3242 12.7656C31.543 13.4688 32.3164 14.7227 32.6445 16.5273C32.6914 16.832 32.7266 17.1133 32.75 17.3711L33.3477 25H29.6914L29.1641 18.7422C28.9766 16.7734 28.4492 15.5312 27.582 15.0156C27.0664 14.7578 26.4219 14.6289 25.6484 14.6289H23.6094ZM35.5625 18.1445V6.57812C35.5625 5.33594 36.0898 4.07031 37.1445 2.78125C38.5508 1.09375 40.332 0.238281 42.4883 0.214844V4.11719C41.2695 4.14062 40.3555 4.79688 39.7461 6.08594C39.5586 6.50781 39.4648 6.85938 39.4648 7.14062V18.1445C39.4648 19.4102 40.1211 20.3477 41.4336 20.957C41.832 21.1445 42.1719 21.2383 42.4531 21.2383V25.1758C41.1172 25.1758 39.7812 24.6953 38.4453 23.7344C36.5469 22.3281 35.5859 20.4648 35.5625 18.1445ZM44.3867 25.1758V21.2383C44.9961 21.2383 45.6289 20.957 46.2852 20.3945C46.9883 19.7617 47.3516 19.0117 47.375 18.1445V7.14062C47.375 6.4375 47.0703 5.75781 46.4609 5.10156C45.875 4.46875 45.1836 4.14062 44.3867 4.11719V0.214844C46.7539 0.214844 48.6523 1.23438 50.082 3.27344C50.9023 4.44531 51.3125 5.54688 51.3125 6.57812V18.1445C51.3125 20.7461 50.1523 22.7383 47.832 24.1211C46.6133 24.8242 45.4648 25.1758 44.3867 25.1758ZM53.8086 25V21.1328L62.3516 4.25781H53.8086V0.390625H66.6758V4.15234L58.1328 21.0273H66.6758V25H53.8086ZM68.9961 25V21.1328L77.5391 4.25781H68.9961V0.390625H81.8633V4.15234L73.3203 21.0273H81.8633V25H68.9961ZM84.3945 18.1445V6.57812C84.3945 5.33594 84.9219 4.07031 85.9766 2.78125C87.3828 1.09375 89.1641 0.238281 91.3203 0.214844V4.11719C90.1016 4.14062 89.1875 4.79688 88.5781 6.08594C88.3906 6.50781 88.2969 6.85938 88.2969 7.14062V18.1445C88.2969 19.4102 88.9531 20.3477 90.2656 20.957C90.6641 21.1445 91.0039 21.2383 91.2852 21.2383V25.1758C89.9492 25.1758 88.6133 24.6953 87.2773 23.7344C85.3789 22.3281 84.418 20.4648 84.3945 18.1445ZM93.2188 25.1758V21.2383C93.8281 21.2383 94.4609 20.957 95.1172 20.3945C95.8203 19.7617 96.1836 19.0117 96.207 18.1445V7.14062C96.207 6.4375 95.9023 5.75781 95.293 5.10156C94.707 4.46875 94.0156 4.14062 93.2188 4.11719V0.214844C95.5859 0.214844 97.4844 1.23438 98.9141 3.27344C99.7344 4.44531 100.145 5.54688 100.145 6.57812V18.1445C100.145 20.7461 98.9844 22.7383 96.6641 24.1211C95.4453 24.8242 94.2969 25.1758 93.2188 25.1758Z" fill="white"/>
</svg>
